<svg id="Capa_1" enable-background="new 0 0 512 512" height="512" viewBox="0 0 512 512" width="512" xmlns="http://www.w3.org/2000/svg"><g><path d="m279 317v120c0 8.284 6.716 15 15 15s15-6.716 15-15v-120c0-8.284-6.716-15-15-15s-15 6.716-15 15z"/><path d="m246.318 332c8.284 0 15-6.716 15-15s-6.716-15-15-15h-48.637c-8.284 0-15 6.716-15 15v120c0 8.284 6.716 15 15 15s15-6.716 15-15v-46.137h29.772c8.284 0 15-6.716 15-15s-6.716-15-15-15h-29.772v-28.863z"/><path d="m380.541 302h-33.986c-3.983 0-7.803 1.584-10.617 4.403s-4.391 6.642-4.383 10.625c0 0 .087 46.158.087 59.839 0 16.503.155 59.752.156 60.187.014 3.979 1.609 7.789 4.433 10.592 2.811 2.79 6.609 4.354 10.567 4.354h.057c1.027-.004 25.26-.099 34.943-.267 18.473-.323 34.915-8.682 46.295-23.535 10.258-13.388 15.907-31.571 15.907-51.199 0-44.859-25.502-74.999-63.459-74.999zm.733 119.737c-4.485.078-12.404.142-19.527.186-.045-14.201-.105-34.812-.105-45.056 0-8.62-.035-30.117-.06-44.867h18.959c24.669 0 33.459 23.245 33.459 44.999 0 21.984-10.12 44.344-32.726 44.738z"/><path d="m162.879 348.188c0-25.468-21.511-46.188-47.952-46.188h-31.888c-.007 0-.013.001-.02.001s-.013-.001-.019-.001c-8.284 0-15 6.716-15 15v120c0 8.284 6.716 15 15 15s15-6.716 15-15v-33.968l38.619 43.878c2.965 3.369 7.104 5.09 11.266 5.09 3.52 0 7.055-1.231 9.904-3.74 6.219-5.474 6.823-14.951 1.35-21.17l-30.498-34.651c19.777-5.697 34.238-23.374 34.238-44.251zm-47.952 16.185c-3.902 0-10.545.027-16.751.057-.031-6.058-.058-12.494-.058-16.242 0-3.212-.016-9.852-.033-16.188h16.843c9.731 0 17.952 7.413 17.952 16.188-.001 8.773-8.222 16.185-17.953 16.185z"/><path d="m497 270c-8.284 0-15 6.716-15 15v172c0 13.785-11.215 25-25 25h-402c-13.785 0-25-11.215-25-25v-402c0-13.785 11.215-25 25-25h171c8.284 0 15-6.716 15-15s-6.716-15-15-15h-171c-30.327 0-55 24.673-55 55v402c0 30.327 24.673 55 55 55h402c30.327 0 55-24.673 55-55v-172c0-8.284-6.716-15-15-15z"/><circle cx="287" cy="225" r="45"/><path d="m287 150c41.355 0 75 33.645 75 75 0 8.284 6.716 15 15 15s15-6.716 15-15c0-57.897-47.103-105-105-105-8.284 0-15 6.716-15 15s6.716 15 15 15z"/><path d="m287 90c74.439 0 135 60.561 135 135 0 8.284 6.716 15 15 15s15-6.716 15-15c0-90.981-74.019-165-165-165-8.284 0-15 6.716-15 15s6.716 15 15 15z"/><path d="m287 30c107.523 0 195 87.477 195 195 0 8.284 6.716 15 15 15s15-6.716 15-15c0-60.1-23.404-116.602-65.901-159.099-42.497-42.497-98.999-65.901-159.099-65.901-8.284 0-15 6.716-15 15s6.716 15 15 15z"/></g></svg>